<svg aria-hidden="true" style="position: absolute; width: 0; height: 0; overflow: hidden;" version="1.1" xmlns="http://www.w3.org/2000/svg" xmlns:xlink="http://www.w3.org/1999/xlink">
<defs>
<symbol id="icon-check-list-outline" viewBox="0 0 32 32">
<path d="M28.263 4.2h-6.59c-0.234 1.322-1.003 2.449-2.069 3.182h8.658c0.307 0 0.556 0.249 0.556 0.555v20.226c0 0.306-0.249 0.555-0.556 0.555h-24.526c-0.307 0-0.556-0.249-0.556-0.555v-20.226c0-0.306 0.249-0.555 0.556-0.555h6.692c0.089-0.265 0.2-0.524 0.358-0.763l1.306-1.978c-0.041-0.145-0.064-0.293-0.090-0.441h-8.266c-2.060 0-3.737 1.677-3.737 3.737v20.226c0 2.061 1.677 3.737 3.737 3.737h24.526c2.060 0 3.737-1.676 3.737-3.737v-20.226c0-2.060-1.677-3.737-3.737-3.737z"></path>
<path d="M12.555 11.509c-0.464-0.357-1.129-0.266-1.487 0.197l-3.136 4.098-1.438-0.997c-0.481-0.334-1.142-0.214-1.476 0.268-0.332 0.482-0.213 1.142 0.268 1.476l2.271 1.572c0.183 0.127 0.394 0.189 0.603 0.189 0.319 0 0.635-0.144 0.842-0.416l3.752-4.901c0.356-0.466 0.266-1.131-0.198-1.486z"></path>
<path d="M25.112 14.582h-10.935c-0.586 0-1.061 0.475-1.061 1.060s0.475 1.060 1.061 1.060h10.935c0.586 0 1.059-0.475 1.059-1.060s-0.473-1.060-1.059-1.060z"></path>
<path d="M11.068 19.445l-3.136 4.099-1.438-0.997c-0.481-0.335-1.142-0.213-1.476 0.268-0.332 0.482-0.213 1.142 0.268 1.476l2.271 1.571c0.183 0.128 0.394 0.188 0.603 0.188 0.319 0 0.635-0.144 0.842-0.415l3.752-4.901c0.356-0.465 0.266-1.131-0.198-1.486s-1.129-0.267-1.487 0.197z"></path>
<path d="M25.112 22.322h-10.935c-0.586 0-1.061 0.475-1.061 1.060s0.475 1.061 1.061 1.061h10.935c0.586 0 1.059-0.475 1.059-1.061s-0.473-1.060-1.059-1.060z"></path>
<path d="M12.883 9.342c0.19 0.126 0.403 0.186 0.618 0.186 0.364 0 0.722-0.177 0.937-0.504l1.084-1.642 0.663-1.002c0.209 0.044 0.428 0.068 0.652 0.068 1.751 0 3.172-1.421 3.172-3.173s-1.421-3.173-3.172-3.173c-1.754 0-3.175 1.421-3.175 3.173 0 0.71 0.241 1.358 0.635 1.887l-1.734 2.626c-0.341 0.517-0.198 1.213 0.319 1.555z"></path>
</symbol>
<symbol id="icon-editor" viewBox="0 0 32 32">
<path d="M30.901 6.448l-5.395-5.395c-0.397-0.397-1.041-0.397-1.438 0l-11.779 11.779c-0.165 0.165-0.268 0.382-0.293 0.614l-0.63 6.024c-0.032 0.305 0.075 0.608 0.293 0.825 0.192 0.192 0.451 0.298 0.719 0.298 0.035 0 0.071-0.002 0.106-0.006l6.024-0.63c0.233-0.024 0.449-0.127 0.614-0.292l11.778-11.779c0.191-0.191 0.298-0.449 0.298-0.719s-0.107-0.528-0.298-0.719zM18.043 17.868l-3.956-3.957 10.7-10.699 3.956 3.956-10.7 10.7z"></path>
<path d="M29.345 14.472c-0.843 0-1.526 0.684-1.526 1.526v9.624c0 1.348-1.097 2.445-2.446 2.445h-19.2c-1.349 0-2.446-1.097-2.446-2.445v-19.201c0-1.348 1.097-2.445 2.446-2.445h9.593c0.842 0 1.526-0.683 1.526-1.526s-0.684-1.526-1.526-1.526h-9.593c-3.032 0-5.498 2.466-5.498 5.497v19.201c0 3.031 2.466 5.497 5.498 5.497h19.2c3.032 0 5.498-2.466 5.498-5.497v-9.624c0-0.843-0.683-1.526-1.526-1.526z"></path>
</symbol>
<symbol id="icon-group" viewBox="0 0 32 32">
<path d="M27.381 17.083h-2.475c0.252 0.691 0.39 1.436 0.39 2.213v9.353c0 0.324-0.056 0.635-0.159 0.924h4.091c1.528 0 2.772-1.243 2.772-2.772v-5.099c0-2.547-2.072-4.619-4.619-4.619z"></path>
<path d="M6.704 19.295c0-0.777 0.138-1.522 0.39-2.213h-2.475c-2.547 0-4.619 2.072-4.619 4.619v5.099c0 1.528 1.243 2.772 2.772 2.772h4.091c-0.103-0.289-0.159-0.6-0.159-0.924v-9.353z"></path>
<path d="M18.829 14.676h-5.658c-2.547 0-4.619 2.072-4.619 4.619v9.353c0 0.51 0.414 0.924 0.924 0.924h13.049c0.51 0 0.924-0.414 0.924-0.924v-9.353c0-2.547-2.072-4.619-4.619-4.619z"></path>
<path d="M16 2.428c-3.063 0-5.555 2.492-5.555 5.555 0 2.078 1.147 3.893 2.84 4.845 0.803 0.452 1.729 0.71 2.715 0.71s1.912-0.258 2.715-0.71c1.694-0.953 2.84-2.768 2.84-4.845 0-3.063-2.492-5.555-5.555-5.555z"></path>
<path d="M6.245 7.606c-2.291 0-4.155 1.864-4.155 4.155s1.864 4.155 4.155 4.155c0.581 0 1.135-0.12 1.637-0.337 0.869-0.374 1.586-1.037 2.029-1.866 0.311-0.582 0.488-1.247 0.488-1.952 0-2.291-1.864-4.155-4.155-4.155z"></path>
<path d="M25.755 7.606c-2.291 0-4.155 1.864-4.155 4.155 0 0.705 0.177 1.369 0.488 1.952 0.443 0.83 1.16 1.492 2.029 1.866 0.503 0.216 1.056 0.337 1.637 0.337 2.291 0 4.155-1.864 4.155-4.155s-1.864-4.155-4.155-4.155z"></path>
</symbol>
<symbol id="icon-exit" viewBox="0 0 32 32">
<path d="M28.038 21.987c-1.153 0-2.087 0.934-2.087 2.087v3.253h-19.901v-3.253c0-1.153-0.934-2.087-2.087-2.087s-2.087 0.934-2.087 2.087v5.341c0 1.153 0.934 2.087 2.087 2.087h24.076c1.153 0 2.087-0.935 2.087-2.087v-5.341c0-1.153-0.935-2.087-2.087-2.087z"></path>
<path d="M15.37 24.208c0.348 0.347 0.913 0.347 1.26 0l7.315-7.315c0.213-0.213 0.276-0.533 0.161-0.813-0.115-0.278-0.386-0.459-0.688-0.459h-3.435v-13.495c0-0.9-0.729-1.629-1.629-1.629h-4.708c-0.9 0-1.629 0.729-1.629 1.629v13.495h-3.436c-0.302 0-0.573 0.181-0.688 0.459-0.115 0.279-0.052 0.599 0.161 0.813l7.315 7.315z"></path>
</symbol>
<symbol id="icon-home" viewBox="0 0 32 32">
<path d="M31.463 14.567l-4.85-4.85v-5.602c0-1.013-0.821-1.834-1.835-1.834-1.012 0-1.833 0.821-1.833 1.834v1.934l-3.611-3.611c-1.785-1.784-4.889-1.781-6.671 0.003l-12.126 12.126c-0.716 0.717-0.716 1.878 0 2.594s1.879 0.717 2.595 0l12.125-12.126c0.395-0.393 1.091-0.393 1.484-0.001l12.127 12.127c0.36 0.359 0.828 0.537 1.297 0.537s0.939-0.179 1.298-0.537c0.716-0.716 0.716-1.877-0-2.594z"></path>
<path d="M16.637 8.516c-0.352-0.352-0.923-0.352-1.274 0l-10.666 10.663c-0.168 0.168-0.264 0.398-0.264 0.638v7.777c0 1.825 1.48 3.305 3.305 3.305h5.281v-8.178h5.962v8.178h5.281c1.825 0 3.305-1.48 3.305-3.305v-7.777c0-0.24-0.095-0.47-0.264-0.638l-10.665-10.663z"></path>
</symbol>
<symbol id="icon-manage" viewBox="0 0 32 32">
<path d="M28.263 4.2h-6.59c-0.234 1.322-1.003 2.449-2.069 3.182h8.658c0.307 0 0.556 0.249 0.556 0.555v20.226c0 0.306-0.249 0.555-0.556 0.555h-24.526c-0.307 0-0.556-0.249-0.556-0.555v-20.226c0-0.306 0.249-0.555 0.556-0.555h6.692c0.089-0.265 0.2-0.524 0.358-0.763l1.306-1.978c-0.041-0.145-0.064-0.293-0.090-0.441h-8.266c-2.060 0-3.737 1.677-3.737 3.737v20.226c0 2.061 1.677 3.737 3.737 3.737h24.526c2.060 0 3.737-1.676 3.737-3.737v-20.226c0-2.060-1.677-3.737-3.737-3.737z"></path>
<path d="M12.555 11.509c-0.464-0.357-1.129-0.266-1.487 0.197l-3.136 4.098-1.438-0.997c-0.481-0.334-1.142-0.214-1.476 0.268-0.332 0.482-0.213 1.142 0.268 1.476l2.271 1.572c0.183 0.127 0.394 0.189 0.603 0.189 0.319 0 0.635-0.144 0.842-0.416l3.752-4.901c0.356-0.466 0.266-1.131-0.198-1.486z"></path>
<path d="M25.112 14.582h-10.935c-0.586 0-1.061 0.475-1.061 1.060s0.475 1.060 1.061 1.060h10.935c0.586 0 1.059-0.475 1.059-1.060s-0.473-1.060-1.059-1.060z"></path>
<path d="M11.068 19.445l-3.136 4.099-1.438-0.997c-0.481-0.335-1.142-0.213-1.476 0.268-0.332 0.482-0.213 1.142 0.268 1.476l2.271 1.571c0.183 0.128 0.394 0.188 0.603 0.188 0.319 0 0.635-0.144 0.842-0.415l3.752-4.901c0.356-0.465 0.266-1.131-0.198-1.486s-1.129-0.267-1.487 0.197z"></path>
<path d="M25.112 22.322h-10.935c-0.586 0-1.061 0.475-1.061 1.060s0.475 1.061 1.061 1.061h10.935c0.586 0 1.059-0.475 1.059-1.061s-0.473-1.060-1.059-1.060z"></path>
<path d="M12.883 9.342c0.19 0.126 0.403 0.186 0.618 0.186 0.364 0 0.722-0.177 0.937-0.504l1.084-1.642 0.663-1.002c0.209 0.044 0.428 0.068 0.652 0.068 1.751 0 3.172-1.421 3.172-3.173s-1.421-3.173-3.172-3.173c-1.754 0-3.175 1.421-3.175 3.173 0 0.71 0.241 1.358 0.635 1.887l-1.734 2.626c-0.341 0.517-0.198 1.213 0.319 1.555z"></path>
</symbol>
<symbol id="icon-statistic" viewBox="0 0 32 32">
<path d="M30.939 10.847c-0.321-0.146-0.699-0.090-0.965 0.143l-12.551 11.002c-1.421 1.245-3.552 1.214-4.936-0.071l-4.217-3.916c-0.339-0.316-0.863-0.322-1.21-0.014l-5.995 5.319c-0.339 0.301-0.533 0.733-0.533 1.186v3.051c0 0.497 0.402 0.9 0.899 0.9h29.136c0.497 0 0.9-0.403 0.9-0.9v-15.879c-0-0.353-0.207-0.674-0.529-0.82z"></path>
<path d="M2.14 16.647l3.775-3.104c0.601 0.47 1.347 0.762 2.169 0.762 0.801 0 1.531-0.277 2.125-0.725l1.577 1.561c-0.097 0.322-0.164 0.658-0.164 1.012 0 1.953 1.584 3.537 3.537 3.537s3.538-1.584 3.538-3.537c0-0.355-0.068-0.692-0.166-1.015l6.238-5.107c0.573 0.398 1.267 0.634 2.017 0.634 1.96 0 3.555-1.595 3.555-3.555s-1.595-3.555-3.555-3.555c-1.96 0-3.555 1.595-3.555 3.555 0 0.498 0.105 0.971 0.29 1.401l-6.069 4.969c-0.62-0.532-1.415-0.865-2.294-0.865-0.864 0-1.644 0.322-2.259 0.836l-1.504-1.478c0.138-0.377 0.226-0.779 0.226-1.204 0-1.954-1.584-3.538-3.538-3.538s-3.538 1.584-3.538 3.538c0 0.416 0.085 0.808 0.215 1.178l-3.872 3.184c-0.418 0.345-0.479 0.964-0.135 1.383 0.346 0.418 0.964 0.478 1.385 0.134zM26.787 5.519c0.876 0 1.59 0.713 1.59 1.59s-0.713 1.589-1.59 1.589c-0.876 0-1.59-0.713-1.59-1.589s0.713-1.59 1.59-1.59zM15.16 14.565c0.875 0 1.586 0.71 1.586 1.587s-0.71 1.587-1.586 1.587c-0.877 0-1.588-0.71-1.588-1.587s0.71-1.587 1.588-1.587zM8.085 9.18c0.876 0 1.586 0.71 1.586 1.587s-0.71 1.587-1.586 1.587c-0.877 0-1.588-0.71-1.588-1.587s0.71-1.587 1.588-1.587z"></path>
</symbol>
</defs>
</svg>
